<?xml version="1.0" encoding="UTF-8" standalone="no"?>
<svg
   xmlns:dc="http://purl.org/dc/elements/1.1/"
   xmlns:cc="http://creativecommons.org/ns#"
   xmlns:rdf="http://www.w3.org/1999/02/22-rdf-syntax-ns#"
   xmlns:svg="http://www.w3.org/2000/svg"
   xmlns="http://www.w3.org/2000/svg"
   viewBox="0 0 2560 1440"
   height="1440"
   width="2560"
   xml:space="preserve"
   id="svg2"
   version="1.1"><metadata
     id="metadata8"><rdf:RDF><cc:Work
         rdf:about=""><dc:format>image/svg+xml</dc:format><dc:type
           rdf:resource="http://purl.org/dc/dcmitype/StillImage" /></cc:Work></rdf:RDF></metadata><defs
     id="defs6"><clipPath
       id="clipPath18"
       clipPathUnits="userSpaceOnUse"><path
         id="path16"
         d="M 0,1080 H 1920 V 0 H 0 Z" /></clipPath></defs><g
     transform="matrix(1.3333333,0,0,-1.3333333,0,1440)"
     id="g10"><g
       id="g12"><g
         clip-path="url(#clipPath18)"
         id="g14"><g
           transform="translate(693.7978,997.5856)"
           id="g20"><path
             id="path22"
             style="fill:#2e1f74;fill-opacity:1;fill-rule:nonzero;stroke:none"
             d="m 0,0 v -440.708 c 0,0 -1.902,-74.11 84.209,-148.545 86.111,-74.435 179.66,-120.271 179.66,-120.271 0,0 93.548,45.836 179.659,120.271 86.111,74.435 84.21,148.545 84.21,148.545 V 0 Z" /></g><g
           transform="translate(1108.9474,419.0745)"
           id="g24"><path
             id="path26"
             style="fill:#30abed;fill-opacity:1;fill-rule:nonzero;stroke:none"
             d="m 0,0 c -69.408,-52.218 -151.314,-99.751 -151.314,-99.751 0,0 -92.43,49.562 -158.302,105.409 -42.909,32.281 -62.638,75.812 -71.448,104.346 -4.531,14.674 -6.717,29.934 -6.717,45.293 V 410.184 H 85.152 v -251.21 c 0,-17.091 -2.733,-34.049 -8.3,-50.208 C 66.607,79.033 44.98,33.862 2.021,1.543 Z" /></g><g
           transform="translate(1086.2177,584.1831)"
           id="g28"><path
             id="path30"
             style="fill:#ffffff;fill-opacity:1;fill-rule:nonzero;stroke:none"
             d="m 0,0 c 0,0 -15.69,11.311 -28.217,12.771 -12.528,1.459 -31.623,3.77 -35.88,10.581 0,0 20.717,4.135 38.88,16.055 C -10.46,46.137 0,45.812 0,45.812 c 0,0 -24.082,6.163 -34.947,1.946 -10.865,-4.216 -26.271,-4.703 -32.596,-1.946 0,0 14.433,7.784 22.055,20.596 7.622,12.811 29.839,23.514 29.839,23.514 0,0 -16.703,-0.162 -29.677,-8.109 -12.973,-7.946 -24.001,-17.027 -34.541,-15.405 0,0 9.405,7.784 14.108,23.514 4.703,15.73 21.893,37.461 21.893,37.461 0,0 -18.325,-10.217 -28.542,-23.353 -10.216,-13.135 -19.784,-20.108 -24.487,-21.406 0,0 4.865,6.325 4.865,24.65 0,18.325 7.298,44.758 7.298,44.758 0,0 -16.866,-19.947 -18.974,-33.082 -2.108,-13.136 -15.244,-28.542 -15.244,-28.542 0,0 0.325,15.406 -5.676,30.488 -6,15.081 -6.843,38.758 -6.843,38.758 0,0 -7.752,-19.622 -5.968,-36.163 1.784,-16.542 -4.054,-32.596 -4.054,-32.596 0,0 -9.892,17.352 -18.974,29.19 -9.081,11.838 -16.054,29.839 -16.054,29.839 0,0 -2.433,-19.947 6.324,-38.758 8.757,-18.812 5.514,-28.704 5.514,-28.704 0,0 -5.352,10.865 -28.217,21.082 -12.974,7.135 -23.839,22.703 -23.839,22.703 0,0 1.46,-16.216 18.001,-32.92 16.541,-16.703 16.703,-26.271 16.703,-26.271 0,0 -10.379,6.973 -32.433,10.703 -22.055,3.73 -32.596,13.622 -32.596,13.622 0,0 7.297,-15.892 34.055,-27.568 18.001,-9.406 18.001,-15.73 18.001,-15.73 0,0 -20.92,2.919 -33.731,-2.271 -12.811,-5.189 -34.542,1.46 -34.542,1.46 0,0 15.73,-12.001 45.569,-14.271 11.676,-1.135 19.298,-8.595 19.298,-8.595 0,0 -15.244,-2.757 -32.92,-12.973 -17.676,-10.217 -31.136,-9.892 -31.136,-9.892 0,0 21.082,-4.703 42.488,0.973 9.243,2.108 12.901,2.595 12.901,2.595 L -334.067,-108 -138.086,1.703 71.128,-116.612 -55.464,-0.378 c 0,0 17.841,5.973 31.95,4.513 C -9.406,2.676 0,0 0,0" /></g><g
           transform="translate(752.1511,476.1827)"
           id="g32"><path
             id="path34"
             style="fill:#2e1f74;fill-opacity:1;fill-rule:nonzero;stroke:none"
             d="m 0,0 130.377,95.93 c 0,0 34.66,30.488 69.363,29.515 34.704,0.973 69.084,-29.515 69.084,-29.515 L 405.195,-8.612 325.33,-78.512 206.953,-151.163 73.646,-71.377 Z" /></g><g
           transform="translate(759.7301,947.8802)"
           id="g36"><path
             id="path38"
             style="fill:#ffffff;fill-opacity:1;fill-rule:nonzero;stroke:none"
             d="m 0,0 c 2.404,-0.182 4.444,-0.31 6.12,-0.383 1.675,-0.072 3.132,-0.109 4.371,-0.109 1.166,0 2.541,0.037 4.125,0.109 1.585,0.073 3.725,0.219 6.42,0.438 -0.51,-5.537 -0.883,-11.265 -1.12,-17.185 -0.236,-5.919 -0.355,-12.613 -0.355,-20.08 0,-12.422 1.275,-20.581 3.825,-24.479 2.55,-3.898 6.994,-5.846 13.332,-5.846 3.57,0 6.73,0.683 9.48,2.049 2.751,1.366 4.909,3.324 6.475,5.873 1.384,2.222 2.368,5.118 2.951,8.688 0.583,3.57 0.874,9.107 0.874,16.611 0,6.375 -0.109,12.421 -0.328,18.14 -0.218,5.719 -0.546,11.129 -0.983,16.229 1.785,-0.219 3.169,-0.365 4.152,-0.438 0.984,-0.072 1.785,-0.109 2.404,-0.109 0.656,0 1.43,0.037 2.323,0.109 0.892,0.073 2.14,0.201 3.743,0.383 -0.328,-4.845 -0.574,-9.307 -0.738,-13.387 -0.164,-4.08 -0.246,-7.704 -0.246,-10.873 v -16.556 c 0,-7.577 -0.51,-13.332 -1.53,-17.267 -1.02,-3.934 -2.714,-7.267 -5.081,-9.999 -2.878,-3.278 -6.512,-5.728 -10.901,-7.349 -4.39,-1.621 -9.571,-2.431 -15.545,-2.431 -6.557,0 -12.194,0.901 -16.911,2.704 -4.718,1.803 -8.333,4.417 -10.847,7.841 -1.821,2.514 -3.114,5.756 -3.879,9.726 -0.765,3.971 -1.147,10.273 -1.147,18.906 v 9.726 3.934 c 0,4.99 -0.082,9.462 -0.246,13.414 C 0.574,-7.659 0.328,-3.788 0,0" /></g><g
           transform="translate(879.6746,870.0178)"
           id="g40"><path
             id="path42"
             style="fill:#ffffff;fill-opacity:1;fill-rule:nonzero;stroke:none"
             d="m 0,0 c 0.48,4.061 0.84,8.39 1.08,12.987 0.24,4.597 0.36,10.55 0.36,17.861 v 7.809 4.763 c 0,8.344 -0.12,15.018 -0.36,20.02 -0.24,5.003 -0.618,9.683 -1.135,14.04 7.532,-0.259 12.728,-0.415 15.59,-0.471 2.861,-0.055 5.049,-0.083 6.563,-0.083 2.658,0 5.861,0.037 9.608,0.111 3.748,0.074 8.502,0.221 14.261,0.443 -0.074,-1.071 -0.138,-2.031 -0.194,-2.88 -0.055,-0.849 -0.083,-1.588 -0.083,-2.215 0,-0.628 0.028,-1.348 0.083,-2.16 0.056,-0.813 0.139,-1.754 0.25,-2.825 -2.954,0.259 -5.917,0.453 -8.889,0.582 -2.972,0.129 -5.991,0.194 -9.055,0.194 -2.031,0 -3.535,-0.01 -4.514,-0.028 -0.978,-0.019 -1.892,-0.065 -2.741,-0.139 -0.148,-2.252 -0.259,-4.578 -0.333,-6.978 -0.073,-2.4 -0.11,-5.612 -0.11,-9.636 v -5.981 c 3.101,0.073 6.719,0.193 10.855,0.359 4.135,0.167 8.787,0.36 13.956,0.582 -0.037,-0.406 -0.092,-0.997 -0.166,-1.772 -0.185,-1.809 -0.277,-2.991 -0.277,-3.545 0,-0.443 0.074,-1.403 0.221,-2.88 0.111,-0.96 0.185,-1.735 0.222,-2.326 -4.615,0.296 -8.981,0.527 -13.098,0.693 -4.117,0.166 -8.021,0.267 -11.713,0.304 V 15.673 c 0,-3.064 0.083,-5.843 0.249,-8.335 C 20.796,4.846 21.045,2.4 21.378,0 19.052,0.111 16.956,0.194 15.092,0.249 13.227,0.305 11.667,0.332 10.412,0.332 9.12,0.332 7.597,0.305 5.843,0.249 4.089,0.194 2.141,0.111 0,0" /></g><g
           transform="translate(1034.005,928.6696)"
           id="g44"><path
             id="path46"
             style="fill:#ffffff;fill-opacity:1;fill-rule:nonzero;stroke:none"
             d="m 0,0 c -1.498,3.853 -3.853,6.77 -7.064,8.75 -3.211,1.98 -7.207,2.97 -11.987,2.97 -7.564,0 -13.495,-2.587 -17.794,-7.76 -4.299,-5.173 -6.448,-12.308 -6.448,-21.406 0,-10.845 2.123,-19.069 6.368,-24.67 4.245,-5.601 10.453,-8.402 18.623,-8.402 4.674,0 8.785,0.767 12.335,2.302 3.55,1.534 6.377,3.763 8.482,6.689 l 1.659,-0.803 c -0.535,-1.998 -1.017,-3.915 -1.445,-5.753 -0.428,-1.837 -0.785,-3.63 -1.07,-5.378 -3.247,-1.748 -6.814,-3.05 -10.703,-3.906 -3.889,-0.857 -8.152,-1.285 -12.79,-1.285 -12.95,0 -23.038,3.443 -30.262,10.329 -7.225,6.885 -10.837,16.535 -10.837,28.951 0,11.88 3.8,21.29 11.399,28.229 7.599,6.939 17.945,10.408 31.038,10.408 4.531,0 8.91,-0.481 13.138,-1.445 C -3.131,16.857 1.07,15.376 5.244,13.379 4.459,11.06 3.773,8.794 3.184,6.582 2.595,4.37 2.087,2.176 1.659,0 Z" /></g><g
           transform="translate(1154.9854,875.3582)"
           id="g48"><path
             id="path50"
             style="fill:#ffffff;fill-opacity:1;fill-rule:nonzero;stroke:none"
             d="M 0,0 C -6.203,-1.798 -12.094,-3.138 -17.673,-4.019 -23.252,-4.9 -28.629,-5.34 -33.804,-5.34 c -12.59,0 -22.509,3.569 -29.758,10.708 -7.249,7.139 -10.874,16.838 -10.874,29.097 0,12.296 4.047,22.087 12.14,29.372 8.093,7.286 19.022,10.929 32.786,10.929 5.469,0 10.525,-0.587 15.168,-1.762 4.643,-1.174 9.057,-2.973 13.241,-5.395 -0.954,-2.166 -1.771,-4.405 -2.45,-6.717 -0.679,-2.313 -1.22,-4.68 -1.624,-7.102 h -1.377 c -2.532,4.441 -5.634,7.762 -9.304,9.965 -3.67,2.202 -7.928,3.303 -12.773,3.303 -7.634,0 -13.773,-2.964 -18.416,-8.891 -4.643,-5.928 -6.965,-13.829 -6.965,-23.702 0,-9.91 2.184,-17.645 6.552,-23.206 4.368,-5.561 10.424,-8.341 18.168,-8.341 2.019,0 3.863,0.11 5.533,0.33 1.67,0.221 3.276,0.569 4.818,1.046 v 3.139 c 0,4 -0.092,8.019 -0.275,12.057 -0.184,4.037 -0.459,8.093 -0.826,12.167 1.908,-0.147 3.743,-0.257 5.505,-0.33 1.762,-0.074 3.377,-0.11 4.845,-0.11 1.468,0 3.065,0.036 4.79,0.11 1.725,0.073 3.542,0.183 5.451,0.33 -0.404,-4.294 -0.689,-7.799 -0.854,-10.516 -0.165,-2.716 -0.248,-5.028 -0.248,-6.937 0,-1.394 0.037,-3.147 0.111,-5.257 C -0.367,6.836 -0.22,3.854 0,0" /></g><g
           transform="translate(1194.0995,829.2587)"
           id="g52"><path
             id="path54"
             style="fill:#ffffff;fill-opacity:1;fill-rule:nonzero;stroke:none"
             d="m 0,0 h -472.933 v -254.888 c 0,-15.358 2.186,-30.618 6.717,-45.293 8.81,-28.533 28.539,-72.064 71.448,-104.346 65.872,-55.846 158.302,-105.408 158.302,-105.408 0,0 81.906,47.533 151.314,99.751 l 2.021,1.542 c 42.959,32.32 64.586,77.491 74.831,107.224 5.567,16.158 8.3,33.117 8.3,50.208 z m -6,-6 v -245.21 c 0,-16.664 -2.682,-32.899 -7.973,-48.254 -10.533,-30.569 -31.707,-73.493 -72.798,-104.408 l -1.988,-1.518 c -61.024,-45.91 -132.645,-88.705 -147.815,-97.652 -16.252,8.939 -96.236,53.853 -154.314,103.092 l -0.134,0.113 -0.139,0.105 c -40.951,30.809 -60.301,72.104 -69.322,101.322 -4.28,13.861 -6.45,28.505 -6.45,43.522 l 0,248.888 z" /></g><g
           transform="translate(961.3502,154.2792)"
           id="g56"><path
             id="path58"
             style="fill:#2e1f74;fill-opacity:1;fill-rule:nonzero;stroke:none"
             d="m 0,0 c 289.469,3.892 371.441,131.356 371.441,131.356 l -29.028,38.433 80.435,67.746 -62.15,4.013 12.77,65.8 -122.314,-100.706 21.892,-34.866 c 0,0 -94.135,-71.029 -270.8,-70.056 h -4.492 c -176.665,-0.973 -277.371,70.056 -277.371,70.056 l 21.892,34.866 -122.314,100.706 12.77,-65.8 -62.15,-4.013 80.435,-67.746 -29.028,-38.433 C -378.012,131.356 -289.469,3.892 0,0" /></g><g
           transform="translate(634.9758,277.1599)"
           id="g60"><path
             id="path62"
             style="fill:#ffffff;fill-opacity:1;fill-rule:nonzero;stroke:none"
             d="m 0,0 c 0.856,0.669 1.746,1.378 2.675,2.132 0.924,0.749 2.109,1.725 3.553,2.92 L 6.855,4.52 C 5.832,2.664 5.442,0.964 5.691,-0.566 c 0.244,-1.535 1.136,-2.956 2.674,-4.262 1.404,-1.193 2.782,-1.806 4.131,-1.839 1.342,-0.036 2.489,0.504 3.443,1.628 0.698,0.822 1.019,1.741 0.971,2.759 -0.049,1.017 -0.713,2.909 -1.992,5.675 -1.701,3.7 -2.545,6.467 -2.536,8.306 0.011,1.835 0.719,3.578 2.117,5.223 2.042,2.406 4.494,3.585 7.355,3.539 2.858,-0.055 5.761,-1.329 8.706,-3.829 1.262,-1.072 2.33,-2.194 3.202,-3.364 0.874,-1.172 1.56,-2.418 2.053,-3.745 C 34.838,9.007 33.892,8.444 32.984,7.857 32.071,7.265 31.171,6.643 30.282,5.981 l -0.428,0.364 c 0.627,1.802 0.795,3.368 0.502,4.691 -0.285,1.326 -1.058,2.519 -2.309,3.582 -1.24,1.052 -2.491,1.597 -3.749,1.64 -1.255,0.04 -2.287,-0.411 -3.096,-1.364 -1.085,-1.277 -0.738,-3.807 1.036,-7.588 0.306,-0.651 0.541,-1.163 0.702,-1.525 1.643,-3.67 2.423,-6.363 2.336,-8.087 -0.089,-1.72 -0.831,-3.405 -2.228,-5.05 -2.207,-2.599 -4.859,-3.842 -7.964,-3.744 -3.1,0.104 -6.3,1.551 -9.588,4.343 C 4.279,-5.724 3.203,-4.634 2.275,-3.484 1.344,-2.333 0.587,-1.172 0,0" /></g><g
           transform="translate(677.9034,286.22)"
           id="g64"><path
             id="path66"
             style="fill:#ffffff;fill-opacity:1;fill-rule:nonzero;stroke:none"
             d="M 0,0 C 0.824,-0.624 1.528,-1.152 2.114,-1.569 2.7,-1.985 3.216,-2.338 3.663,-2.628 4.084,-2.902 4.585,-3.209 5.173,-3.555 5.76,-3.902 6.567,-4.346 7.583,-4.9 6.109,-6.773 4.637,-8.746 3.163,-10.824 c -1.467,-2.074 -3.076,-4.455 -4.824,-7.145 -2.903,-4.469 -4.354,-7.707 -4.345,-9.701 0.009,-2.003 1.148,-3.746 3.43,-5.228 1.286,-0.835 2.584,-1.323 3.897,-1.475 1.305,-0.156 2.541,0.045 3.698,0.597 1.019,0.475 2.049,1.288 3.096,2.436 1.044,1.15 2.448,3.078 4.2,5.775 1.492,2.297 2.866,4.502 4.122,6.606 1.26,2.11 2.407,4.135 3.44,6.073 0.594,-0.492 1.057,-0.873 1.393,-1.127 0.34,-0.256 0.619,-0.455 0.844,-0.601 0.234,-0.152 0.52,-0.32 0.857,-0.504 0.338,-0.183 0.82,-0.425 1.438,-0.738 -1.25,-1.665 -2.384,-3.218 -3.396,-4.646 -1.012,-1.429 -1.888,-2.715 -2.63,-3.857 l -3.872,-5.961 c -1.772,-2.728 -3.302,-4.681 -4.587,-5.852 -1.285,-1.18 -2.676,-1.981 -4.168,-2.414 -1.803,-0.506 -3.682,-0.537 -5.642,-0.098 -1.957,0.446 -4.014,1.365 -6.164,2.761 -2.359,1.533 -4.18,3.178 -5.456,4.93 -1.276,1.752 -1.965,3.54 -2.072,5.357 -0.067,1.331 0.226,2.8 0.88,4.408 0.654,1.608 1.988,3.963 4.008,7.071 l 2.274,3.502 0.921,1.417 c 1.168,1.798 2.182,3.428 3.048,4.89 C -1.582,-2.886 -0.765,-1.438 0,0" /></g><g
           transform="translate(708.1325,250.5389)"
           id="g68"><path
             id="path70"
             style="fill:#ffffff;fill-opacity:1;fill-rule:nonzero;stroke:none"
             d="M 0,0 C 2.285,-1.164 4.149,-1.537 5.601,-1.124 7.045,-0.715 8.31,0.554 9.387,2.669 10.259,4.38 10.513,5.88 10.147,7.161 9.787,8.447 8.813,9.486 7.241,10.287 7.115,10.351 6.912,10.437 6.633,10.546 6.355,10.655 6.019,10.784 5.618,10.93 5.429,10.592 5.246,10.258 5.071,9.93 4.899,9.609 4.733,9.292 4.578,8.987 L 3.331,6.539 Z m -1.514,-3.071 -2.96,-5.81 c -0.219,-0.431 -0.582,-1.249 -1.087,-2.445 -0.508,-1.203 -1.071,-2.587 -1.699,-4.164 -0.944,0.59 -1.723,1.054 -2.329,1.396 -0.607,0.342 -1.144,0.641 -1.618,0.883 -0.458,0.233 -1.015,0.492 -1.665,0.781 -0.657,0.285 -1.487,0.64 -2.496,1.071 1.203,1.951 2.384,3.956 3.541,6.023 1.16,2.074 2.622,4.837 4.389,8.306 1.456,2.859 2.741,5.487 3.858,7.884 1.116,2.396 2.139,4.732 3.071,7.014 0.762,-0.472 1.389,-0.858 1.892,-1.148 0.501,-0.288 0.955,-0.536 1.36,-0.742 0.806,-0.411 2.103,-1.021 3.887,-1.822 1.782,-0.807 3.159,-1.45 4.12,-1.94 3.426,-1.745 5.612,-3.66 6.565,-5.741 0.95,-2.08 0.735,-4.468 -0.633,-7.154 C 15.108,-3.77 12.934,-5.586 10.16,-6.12 7.387,-6.653 4.02,-5.915 0.064,-3.9 c -0.431,0.219 -0.759,0.387 -0.975,0.513 -0.219,0.12 -0.421,0.223 -0.603,0.316" /></g><g
           transform="translate(737.1815,241.3073)"
           id="g72"><path
             id="path74"
             style="fill:#ffffff;fill-opacity:1;fill-rule:nonzero;stroke:none"
             d="m 0,0 0.197,-0.079 c 2.451,-0.988 4.421,-1.236 5.915,-0.754 1.493,0.49 2.653,1.756 3.477,3.799 0.742,1.844 0.809,3.365 0.204,4.58 C 9.183,8.763 7.835,9.787 5.746,10.629 5.732,10.634 5.61,10.7 5.378,10.809 5.145,10.919 4.903,11.025 4.658,11.123 4.307,10.422 3.971,9.699 3.647,8.963 3.326,8.225 2.934,7.284 2.473,6.138 Z m -14.272,-13.517 c 0.996,1.925 1.961,3.912 2.891,5.953 0.934,2.039 1.989,4.527 3.171,7.461 l 0.62,1.54 c 1.368,3.397 2.472,6.266 3.307,8.618 0.839,2.35 1.588,4.64 2.25,6.869 0.098,-0.055 0.216,-0.111 0.361,-0.169 1.353,-0.666 2.341,-1.12 2.963,-1.37 0.87,-0.351 2.325,-0.881 4.369,-1.584 2.044,-0.703 3.624,-1.283 4.739,-1.732 3.452,-1.391 5.723,-3.044 6.815,-4.953 1.094,-1.917 1.088,-4.242 -0.01,-6.969 -0.851,-2.112 -2.171,-3.595 -3.95,-4.435 -1.779,-0.84 -3.782,-0.924 -6.007,-0.252 0.482,-3.324 1.033,-6.579 1.654,-9.767 0.625,-3.18 1.312,-6.306 2.064,-9.377 -1.268,0.615 -2.264,1.081 -2.985,1.403 -0.724,0.324 -1.313,0.585 -1.776,0.772 -0.552,0.222 -1.189,0.454 -1.907,0.704 -0.717,0.24 -1.578,0.523 -2.576,0.845 -0.052,1.842 -0.294,4.251 -0.734,7.221 -0.438,2.977 -1.074,6.459 -1.908,10.454 l -2.347,-5.827 c -0.648,-1.609 -1.224,-3.118 -1.724,-4.53 -0.501,-1.411 -0.946,-2.764 -1.337,-4.075 -0.951,0.487 -1.727,0.864 -2.323,1.136 -0.6,0.274 -1.113,0.505 -1.548,0.68 -0.435,0.175 -0.971,0.367 -1.597,0.587 -0.629,0.221 -1.452,0.489 -2.475,0.797" /></g><g
           transform="translate(763.3796,226.4086)"
           id="g76"><path
             id="path78"
             style="fill:#ffffff;fill-opacity:1;fill-rule:nonzero;stroke:none"
             d="M 0,0 C 0.103,-0.032 0.275,-0.093 0.509,-0.181 1.96,-0.678 2.998,-1.024 3.624,-1.218 4.342,-1.44 5.506,-1.77 7.123,-2.21 L 7.369,-2.286 C 7.375,-0.581 7.327,1.172 7.217,2.967 7.113,4.768 6.947,6.644 6.713,8.579 5.439,7.057 4.241,5.581 3.114,4.146 1.99,2.71 0.953,1.325 0,0 m -13.114,-9.656 c 4.073,4.628 7.996,9.272 11.772,13.922 3.774,4.643 7.417,9.327 10.921,14.03 0.029,-0.009 0.075,-0.023 0.136,-0.042 0.975,-0.435 1.697,-0.721 2.162,-0.866 0.374,-0.115 0.998,-0.262 1.877,-0.434 0.232,-0.041 0.404,-0.078 0.507,-0.11 0.181,-6.174 0.449,-12.219 0.81,-18.129 0.363,-5.903 0.81,-11.746 1.342,-17.53 -0.961,0.345 -1.803,0.645 -2.535,0.896 -0.733,0.25 -1.351,0.458 -1.859,0.615 -0.672,0.209 -1.391,0.416 -2.151,0.629 -0.76,0.212 -1.582,0.428 -2.462,0.654 -0.011,0.907 -0.019,2.438 -0.023,4.598 0.001,2.166 -0.003,3.835 -0.015,5.015 -0.28,0.102 -0.993,0.355 -2.137,0.749 -1.148,0.395 -2.076,0.706 -2.794,0.929 -0.224,0.069 -0.892,0.253 -2.001,0.558 -1.109,0.305 -2.106,0.583 -2.992,0.842 -1.166,-1.649 -3.01,-4.186 -5.53,-7.613 l -0.166,-0.221 c -0.541,0.215 -0.989,0.392 -1.348,0.527 -0.36,0.135 -0.64,0.238 -0.849,0.303 -0.373,0.115 -0.787,0.228 -1.234,0.343 -0.447,0.116 -0.924,0.225 -1.431,0.335" /></g><g
           transform="translate(819.5859,215.4013)"
           id="g80"><path
             id="path82"
             style="fill:#ffffff;fill-opacity:1;fill-rule:nonzero;stroke:none"
             d="m 0,0 c -0.578,-4.286 -0.176,-7.757 1.209,-10.408 1.385,-2.65 3.589,-4.18 6.61,-4.587 2.961,-0.4 5.469,0.508 7.528,2.716 2.056,2.209 3.37,5.434 3.942,9.675 0.585,4.33 0.185,7.824 -1.197,10.497 C 16.71,10.565 14.522,12.1 11.53,12.504 8.525,12.909 5.995,12.004 3.946,9.787 1.897,7.57 0.581,4.308 0,0 m -8.682,0.751 c 0.735,5.451 2.961,9.477 6.673,12.078 3.712,2.601 8.502,3.502 14.377,2.709 5.669,-0.765 9.865,-2.759 12.586,-5.995 2.719,-3.229 3.732,-7.406 3.039,-12.54 -0.75,-5.562 -2.959,-9.658 -6.627,-12.295 -3.672,-2.636 -8.472,-3.558 -14.41,-2.756 -5.731,0.773 -9.949,2.777 -12.651,6.018 -2.706,3.235 -3.701,7.492 -2.987,12.781" /></g><g
           transform="translate(851.6896,193.1828)"
           id="g84"><path
             id="path86"
             style="fill:#ffffff;fill-opacity:1;fill-rule:nonzero;stroke:none"
             d="m 0,0 c 0.938,3.572 1.718,6.605 2.334,9.099 0.616,2.486 1.166,4.814 1.654,6.984 l 3.575,16.193 c 0.882,-0.167 1.555,-0.292 2.031,-0.364 0.472,-0.071 0.886,-0.122 1.245,-0.153 0.39,-0.034 0.851,-0.059 1.384,-0.068 0.529,-0.016 1.198,-0.007 1.999,0.006 1.238,-4.367 2.422,-8.362 3.548,-11.994 1.13,-3.633 2.25,-7.07 3.365,-10.312 L 28.3,21.932 c 0.91,1.61 1.68,3.074 2.312,4.371 0.629,1.306 1.181,2.58 1.651,3.824 0.83,-0.162 1.496,-0.287 1.994,-0.36 0.494,-0.073 0.919,-0.125 1.279,-0.156 0.404,-0.035 0.861,-0.06 1.372,-0.075 0.506,-0.014 1.172,-0.005 1.988,0.014 l 0.142,-16.233 c 0.005,-0.373 0.007,-0.956 0.013,-1.741 0.07,-6.835 0.285,-11.845 0.65,-15.03 -1.111,0.194 -1.996,0.331 -2.646,0.417 -0.65,0.087 -1.211,0.158 -1.679,0.199 -0.533,0.046 -1.129,0.076 -1.795,0.104 -0.662,0.027 -1.539,0.044 -2.622,0.041 0.178,2.562 0.259,5.775 0.253,9.653 -0.008,0.3 -0.005,0.509 0.006,0.635 l -0.175,11.506 c -2,-3.487 -3.934,-6.957 -5.804,-10.418 -1.87,-3.461 -3.685,-6.934 -5.448,-10.405 -0.279,0.055 -0.54,0.1 -0.787,0.136 -0.247,0.044 -0.543,0.077 -0.888,0.107 -0.185,0.016 -0.547,0.025 -1.079,0.042 -0.28,0.009 -0.507,0.014 -0.679,0.014 -1.103,3.772 -2.27,7.482 -3.507,11.131 -1.236,3.656 -2.553,7.283 -3.952,10.871 L 6.385,7.611 C 6.207,6.513 6.018,5.282 5.813,3.91 5.608,2.538 5.399,1.084 5.187,-0.451 4.402,-0.286 3.81,-0.175 3.416,-0.11 3.022,-0.046 2.701,0.004 2.453,0.026 2.201,0.048 1.891,0.052 1.525,0.054 1.155,0.056 0.646,0.041 0,0" /></g><g
           transform="translate(900.8695,187.7946)"
           id="g88"><path
             id="path90"
             style="fill:#ffffff;fill-opacity:1;fill-rule:nonzero;stroke:none"
             d="m 0,0 c 0.186,2.389 0.32,4.846 0.409,7.361 0.082,2.524 0.127,5.523 0.127,9.007 0,2.173 -0.037,4.644 -0.119,7.406 -0.075,2.754 -0.186,5.761 -0.328,9.013 0.826,-0.074 1.481,-0.134 1.958,-0.163 0.476,-0.03 0.878,-0.045 1.213,-0.045 0.357,0 0.767,0.015 1.228,0.045 0.462,0.022 1.087,0.082 1.891,0.163 2.903,-3.744 5.895,-7.391 8.954,-10.941 3.067,-3.543 6.215,-7.004 9.453,-10.376 v 9.029 c 0,2.575 -0.022,4.793 -0.082,6.646 -0.052,1.861 -0.134,3.737 -0.246,5.642 0.566,-0.067 1.05,-0.119 1.452,-0.156 0.409,-0.037 0.752,-0.052 1.034,-0.052 0.268,0 0.708,0.03 1.318,0.082 0.61,0.059 1.057,0.097 1.355,0.126 -0.231,-1.764 -0.402,-4.138 -0.499,-7.123 -0.104,-2.977 -0.156,-7.391 -0.156,-13.234 v -2.3 c 0,-2.374 0.029,-4.332 0.096,-5.872 C 29.118,2.717 29.215,1.295 29.341,0 28.575,0.097 27.979,0.156 27.57,0.186 27.153,0.216 26.788,0.238 26.476,0.238 26.148,0.238 25.768,0.216 25.337,0.186 24.905,0.156 24.324,0.097 23.595,0 20.655,3.722 17.626,7.384 14.499,10.986 11.381,14.589 8.135,18.184 4.756,21.764 V 8.493 C 4.756,7.555 4.771,6.349 4.808,4.875 4.838,3.409 4.883,1.779 4.942,0 4.369,0.074 3.878,0.134 3.469,0.179 3.059,0.216 2.702,0.238 2.389,0.238 2.188,0.238 1.913,0.216 1.57,0.186 1.221,0.156 0.7,0.097 0,0" /></g><g
           transform="translate(940.6437,187.7835)"
           id="g92"><path
             id="path94"
             style="fill:#ffffff;fill-opacity:1;fill-rule:nonzero;stroke:none"
             d="M 0,0 C 0.201,1.719 0.35,3.55 0.454,5.501 0.558,7.443 0.61,9.966 0.61,13.063 v 3.305 2.017 c 0,3.535 -0.052,6.364 -0.156,8.485 -0.104,2.114 -0.26,4.094 -0.484,5.94 3.193,-0.104 5.397,-0.171 6.602,-0.194 1.214,-0.03 2.144,-0.037 2.784,-0.037 1.124,0 2.479,0.015 4.072,0.045 1.585,0.029 3.595,0.096 6.036,0.186 0,-0.119 -0.015,-0.32 -0.045,-0.581 -0.081,-0.766 -0.119,-1.295 -0.119,-1.578 0,-0.275 0.038,-0.774 0.119,-1.474 0.015,-0.282 0.038,-0.491 0.045,-0.632 -1.25,0.111 -2.501,0.193 -3.759,0.245 -1.25,0.053 -2.531,0.082 -3.826,0.082 -0.87,0 -1.518,-0.007 -1.942,-0.015 C 9.52,28.85 9.133,28.843 8.79,28.828 8.731,27.622 8.686,26.431 8.664,25.262 8.642,24.086 8.627,22.925 8.627,21.764 v -2.531 c 1.317,0.03 2.85,0.082 4.6,0.149 1.749,0.075 3.721,0.164 5.91,0.276 -0.067,-0.44 -0.112,-0.856 -0.142,-1.243 -0.03,-0.395 -0.045,-0.737 -0.045,-1.035 0,-0.186 0.03,-0.596 0.09,-1.221 0.052,-0.409 0.082,-0.737 0.097,-0.982 -1.802,0.126 -3.573,0.223 -5.322,0.29 -1.757,0.074 -3.484,0.112 -5.188,0.127 V 10.368 C 8.627,8.924 8.649,7.704 8.686,6.699 8.723,5.687 8.79,4.786 8.887,3.99 c 1.779,0 3.536,0.037 5.255,0.126 1.72,0.089 3.446,0.216 5.181,0.387 C 19.278,4.191 19.241,3.87 19.218,3.543 19.196,3.215 19.181,2.784 19.181,2.255 19.181,2.047 19.196,1.749 19.226,1.362 19.263,0.968 19.293,0.514 19.323,0 15.787,0.097 13.152,0.156 11.418,0.186 9.684,0.216 8.307,0.238 7.294,0.238 6.074,0.238 4.853,0.216 3.647,0.179 2.434,0.134 1.213,0.074 0,0" /></g><g
           transform="translate(969.0292,188.5278)"
           id="g96"><path
             id="path98"
             style="fill:#ffffff;fill-opacity:1;fill-rule:nonzero;stroke:none"
             d="M 0,0 C 0.194,1.069 0.387,2.189 0.586,3.37 0.777,4.542 1.021,6.059 1.311,7.911 L 2.129,7.928 C 2.596,5.861 3.432,4.329 4.629,3.349 5.833,2.361 7.443,1.888 9.46,1.93 c 1.845,0.038 3.28,0.492 4.312,1.362 1.032,0.862 1.529,2.027 1.499,3.5 -0.023,1.079 -0.391,1.98 -1.099,2.71 -0.714,0.729 -2.462,1.706 -5.256,2.929 -3.727,1.643 -6.193,3.155 -7.405,4.537 -1.205,1.382 -1.837,3.156 -1.881,5.314 -0.065,3.155 0.992,5.664 3.165,7.525 2.173,1.854 5.19,2.825 9.052,2.904 1.66,0.034 3.204,-0.097 4.632,-0.396 1.428,-0.298 2.77,-0.776 4.02,-1.443 -0.388,-1.035 -0.724,-2.084 -1.015,-3.125 -0.291,-1.049 -0.552,-2.111 -0.783,-3.195 L 18.143,24.54 c -0.729,1.764 -1.634,3.049 -2.73,3.845 -1.096,0.804 -2.466,1.185 -4.111,1.151 C 9.68,29.503 8.386,29.081 7.412,28.279 6.446,27.478 5.976,26.456 6.002,25.205 6.036,23.531 7.969,21.866 11.8,20.21 c 0.668,-0.284 1.179,-0.511 1.54,-0.675 3.667,-1.659 6.036,-3.159 7.106,-4.506 1.078,-1.348 1.642,-3.101 1.687,-5.259 C 22.203,6.362 21.038,3.673 18.652,1.688 16.258,-0.29 12.907,-1.327 8.591,-1.416 6.998,-1.449 5.47,-1.346 4.006,-1.101 2.549,-0.856 1.209,-0.489 0,0" /></g><g
           transform="translate(1023.2963,189.6701)"
           id="g100"><path
             id="path102"
             style="fill:#ffffff;fill-opacity:1;fill-rule:nonzero;stroke:none"
             d="m 0,0 c 0.045,1.73 0.036,3.568 -0.043,5.519 -0.072,1.944 -0.247,4.462 -0.526,7.546 l -0.298,3.291 -0.181,2.009 c -0.319,3.521 -0.626,6.333 -0.921,8.437 -0.286,2.096 -0.62,4.054 -0.987,5.874 0.529,0.018 1.237,0.045 2.108,0.079 1.176,0.054 1.927,0.099 2.253,0.129 0.778,0.07 2.086,0.234 3.931,0.498 0.332,0.045 0.583,0.082 0.767,0.114 -0.008,-1.645 0.026,-3.264 0.087,-4.85 0.07,-1.593 0.177,-3.273 0.337,-5.044 L 6.631,22.453 7.658,11.103 C 7.835,9.139 7.984,7.747 8.088,6.927 8.192,6.1 8.302,5.385 8.425,4.768 c 1.801,0.163 3.562,0.36 5.274,0.604 1.712,0.245 3.413,0.526 5.095,0.85 -0.002,-0.471 -0.002,-0.89 0.009,-1.263 0.011,-0.365 0.026,-0.7 0.053,-0.989 0.017,-0.193 0.095,-0.641 0.241,-1.346 0.062,-0.36 0.111,-0.647 0.147,-0.883 C 15.722,1.519 13.092,1.341 11.355,1.214 9.625,1.087 8.251,0.986 7.243,0.894 6.027,0.784 4.821,0.653 3.616,0.506 2.412,0.353 1.209,0.184 0,0" /></g><g
           transform="translate(1045.1088,226.1157)"
           id="g104"><path
             id="path106"
             style="fill:#ffffff;fill-opacity:1;fill-rule:nonzero;stroke:none"
             d="m 0,0 c 1.028,0.054 1.907,0.103 2.627,0.163 0.713,0.06 1.335,0.122 1.867,0.189 0.495,0.062 1.077,0.149 1.745,0.263 0.676,0.115 1.576,0.295 2.717,0.527 0.073,-2.384 0.223,-4.84 0.435,-7.379 0.212,-2.532 0.524,-5.388 0.922,-8.571 0.661,-5.288 1.635,-8.7 2.927,-10.218 1.294,-1.526 3.296,-2.124 5.992,-1.787 1.522,0.191 2.829,0.654 3.93,1.384 1.095,0.722 1.914,1.672 2.443,2.841 0.473,1.019 0.74,2.306 0.793,3.857 0.061,1.553 -0.109,3.932 -0.508,7.123 -0.34,2.718 -0.714,5.289 -1.106,7.708 -0.401,2.425 -0.829,4.712 -1.285,6.86 0.771,0.007 1.371,0.014 1.795,0.037 0.418,0.023 0.767,0.051 1.025,0.084 0.281,0.035 0.611,0.091 0.984,0.168 0.381,0.077 0.905,0.203 1.575,0.362 0.117,-2.079 0.252,-3.997 0.403,-5.741 0.143,-1.745 0.299,-3.293 0.468,-4.645 l 0.882,-7.053 c 0.403,-3.228 0.496,-5.707 0.269,-7.43 -0.226,-1.731 -0.765,-3.239 -1.631,-4.532 -1.052,-1.55 -2.465,-2.784 -4.255,-3.713 -1.782,-0.92 -3.947,-1.543 -6.488,-1.861 -2.792,-0.349 -5.24,-0.265 -7.345,0.252 -2.105,0.517 -3.788,1.439 -5.041,2.76 -0.909,0.974 -1.629,2.287 -2.172,3.937 -0.537,1.65 -1.034,4.311 -1.494,7.989 l -0.518,4.144 -0.21,1.676 C 1.48,-8.479 1.212,-6.577 0.928,-4.902 0.651,-3.227 0.334,-1.593 0,0" /></g><g
           transform="translate(1085.7261,199.8357)"
           id="g108"><path
             id="path110"
             style="fill:#ffffff;fill-opacity:1;fill-rule:nonzero;stroke:none"
             d="m 0,0 0.909,2.118 c 1.62,3.713 2.685,6.201 3.193,7.47 L 7.196,17.295 -6.377,32.19 c 1.248,0.181 2.222,0.325 2.934,0.45 0.704,0.123 1.318,0.242 1.842,0.356 0.611,0.134 1.306,0.301 2.091,0.51 0.793,0.204 1.753,0.482 2.899,0.816 0.647,-0.903 1.233,-1.705 1.775,-2.409 0.535,-0.706 0.953,-1.224 1.248,-1.564 l 4.294,-5.013 c 0.687,1.879 1.329,3.756 1.907,5.612 0.577,1.855 1.119,3.772 1.634,5.743 0.722,0.074 1.311,0.134 1.769,0.203 0.458,0.062 0.847,0.132 1.167,0.201 0.342,0.075 0.724,0.174 1.152,0.305 0.423,0.123 0.99,0.315 1.693,0.552 -0.785,-1.641 -1.714,-3.771 -2.81,-6.395 -1.09,-2.615 -2.364,-5.75 -3.807,-9.402 L 27.641,6.032 C 26.353,5.827 25.293,5.657 24.447,5.518 23.61,5.373 22.893,5.239 22.296,5.109 21.867,5.016 20.494,4.64 18.168,3.988 L 17.875,3.901 c -0.567,0.851 -1.07,1.587 -1.512,2.214 -0.442,0.628 -0.739,1.012 -0.882,1.179 L 9.91,13.902 C 9.145,11.892 8.446,9.858 7.806,7.798 7.166,5.739 6.572,3.575 6.007,1.311 4.849,1.172 4.085,1.074 3.695,1.012 3.305,0.95 2.996,0.898 2.771,0.848 2.342,0.755 1.903,0.636 1.445,0.498 0.99,0.353 0.508,0.187 0,0" /></g><g
           transform="translate(1142.521,212.1334)"
           id="g112"><path
             id="path114"
             style="fill:#ffffff;fill-opacity:1;fill-rule:nonzero;stroke:none"
             d="m 0,0 c -0.342,1.697 -0.761,3.486 -1.274,5.37 -0.503,1.879 -1.236,4.294 -2.197,7.238 l -1.024,3.142 -0.626,1.918 c -1.096,3.361 -2.023,6.034 -2.78,8.018 -0.748,1.98 -1.51,3.814 -2.274,5.506 0.512,0.136 1.196,0.32 2.038,0.547 1.134,0.316 1.855,0.527 2.167,0.629 0.743,0.242 1.981,0.693 3.72,1.362 0.314,0.118 0.55,0.211 0.723,0.283 0.359,-1.605 0.754,-3.176 1.167,-4.708 0.424,-1.538 0.903,-3.151 1.454,-4.842 L 1.452,23.366 4.986,12.532 C 5.598,10.657 6.053,9.334 6.337,8.558 6.624,7.774 6.891,7.102 7.148,6.528 c 1.72,0.561 3.392,1.146 5.006,1.766 1.614,0.621 3.21,1.274 4.777,1.965 C 17.034,9.8 17.128,9.392 17.222,9.031 17.314,8.678 17.404,8.355 17.494,8.079 17.554,7.895 17.73,7.474 18.029,6.821 18.171,6.483 18.282,6.214 18.37,5.992 14.986,4.99 12.462,4.23 10.797,3.718 9.139,3.208 7.823,2.802 6.861,2.488 5.7,2.11 4.554,1.712 3.412,1.301 2.272,0.882 1.137,0.449 0,0" /></g><g
           transform="translate(1154.5645,250.9404)"
           id="g116"><path
             id="path118"
             style="fill:#ffffff;fill-opacity:1;fill-rule:nonzero;stroke:none"
             d="m 0,0 c 0.976,0.328 1.809,0.613 2.487,0.865 0.67,0.248 1.253,0.476 1.747,0.683 0.46,0.193 0.996,0.434 1.609,0.724 0.62,0.292 1.439,0.707 2.475,1.239 0.712,-2.277 1.517,-4.602 2.405,-6.99 0.885,-2.381 1.955,-5.049 3.195,-8.007 2.06,-4.915 3.916,-7.939 5.57,-9.053 1.656,-1.122 3.745,-1.158 6.251,-0.108 1.414,0.593 2.548,1.391 3.413,2.391 0.86,0.99 1.393,2.125 1.588,3.393 0.181,1.109 0.091,2.419 -0.275,3.928 -0.359,1.512 -1.163,3.758 -2.406,6.723 -1.059,2.527 -2.111,4.902 -3.14,7.126 -1.039,2.228 -2.067,4.315 -3.084,6.262 0.741,0.214 1.316,0.382 1.719,0.519 0.396,0.133 0.725,0.255 0.965,0.355 0.261,0.11 0.564,0.253 0.902,0.427 0.346,0.177 0.817,0.439 1.42,0.773 0.672,-1.97 1.318,-3.782 1.933,-5.421 0.607,-1.642 1.174,-3.091 1.701,-4.347 l 2.747,-6.556 c 1.258,-3 2.014,-5.362 2.259,-7.083 0.248,-1.728 0.135,-3.326 -0.351,-4.804 -0.596,-1.775 -1.625,-3.345 -3.098,-4.721 -1.469,-1.366 -3.387,-2.549 -5.748,-3.539 -2.595,-1.087 -4.976,-1.665 -7.142,-1.734 -2.166,-0.069 -4.036,0.367 -5.598,1.302 -1.138,0.693 -2.184,1.764 -3.152,3.206 -0.96,1.446 -2.156,3.874 -3.589,7.293 l -1.614,3.851 -0.653,1.558 C 3.708,-7.768 2.938,-6.008 2.213,-4.472 1.495,-2.932 0.751,-1.445 0,0" /></g><g
           transform="translate(1215.0795,267.4933)"
           id="g120"><path
             id="path122"
             style="fill:#ffffff;fill-opacity:1;fill-rule:nonzero;stroke:none"
             d="m 0,0 c -1.36,1.197 -2.869,1.856 -4.515,1.974 -1.65,0.124 -3.401,-0.299 -5.264,-1.267 -2.939,-1.527 -4.722,-3.728 -5.347,-6.611 -0.634,-2.879 -0.025,-6.086 1.814,-9.626 2.193,-4.221 4.679,-6.989 7.463,-8.311 2.783,-1.321 5.757,-1.152 8.941,0.502 1.816,0.944 3.26,2.071 4.332,3.383 1.071,1.311 1.715,2.753 1.944,4.315 l 0.808,0.025 c 0.194,-0.889 0.397,-1.731 0.602,-2.53 0.205,-0.8 0.43,-1.572 0.672,-2.31 -0.908,-1.336 -2.035,-2.559 -3.372,-3.681 -1.341,-1.116 -2.913,-2.143 -4.717,-3.08 -5.039,-2.618 -9.656,-3.322 -13.856,-2.099 -4.204,1.214 -7.553,4.238 -10.065,9.073 -2.398,4.617 -2.826,9.041 -1.271,13.28 1.552,4.228 4.872,7.672 9.964,10.318 1.763,0.916 3.567,1.61 5.404,2.094 1.84,0.478 3.77,0.751 5.8,0.816 C -0.497,5.202 -0.311,4.183 -0.09,3.208 0.125,2.229 0.373,1.268 0.647,0.336 Z" /></g><g
           transform="translate(1242.0037,254.291)"
           id="g124"><path
             id="path126"
             style="fill:#ffffff;fill-opacity:1;fill-rule:nonzero;stroke:none"
             d="m 0,0 c -1.283,2.043 -2.616,4.067 -4.002,6.061 -1.375,1.993 -3.167,4.454 -5.361,7.377 -1.891,2.517 -3.66,4.8 -5.324,6.855 -1.658,2.059 -3.333,4.041 -5.013,5.944 1.109,0.656 1.942,1.17 2.505,1.537 0.573,0.365 1.062,0.704 1.473,1.013 0.274,0.205 0.635,0.505 1.068,0.895 0.444,0.389 1.17,1.045 2.174,1.976 1.28,-1.989 2.639,-4.022 4.084,-6.083 1.439,-2.066 3.231,-4.527 5.372,-7.378 l 1.126,-1.5 C -0.124,14.334 1.476,12.278 2.906,10.522 4.326,8.767 5.769,7.068 7.22,5.421 6.247,4.783 5.449,4.259 4.815,3.839 4.186,3.413 3.649,3.037 3.214,2.711 2.988,2.541 2.675,2.288 2.278,1.962 1.881,1.636 1.117,0.979 0,0" /></g><g
           transform="translate(1258.6414,266.0489)"
           id="g128"><path
             id="path130"
             style="fill:#ffffff;fill-opacity:1;fill-rule:nonzero;stroke:none"
             d="M 0,0 C -0.547,0.938 -1.128,1.916 -1.744,2.942 -2.359,3.959 -3.159,5.27 -4.142,6.867 l 0.611,0.544 c 1.698,-1.269 3.328,-1.89 4.875,-1.858 1.557,0.031 3.089,0.717 4.595,2.059 1.379,1.227 2.175,2.505 2.394,3.836 0.224,1.326 -0.154,2.534 -1.134,3.635 -0.718,0.806 -1.583,1.251 -2.595,1.347 -1.017,0.09 -2.98,-0.302 -5.899,-1.188 -3.901,-1.171 -6.758,-1.622 -8.577,-1.359 -1.814,0.268 -3.447,1.206 -4.883,2.818 -2.099,2.357 -2.924,4.951 -2.481,7.778 0.448,2.821 2.112,5.518 4.997,8.088 1.239,1.104 2.499,2.006 3.778,2.707 1.28,0.701 2.611,1.209 3.994,1.514 0.378,-1.039 0.804,-2.055 1.259,-3.036 0.459,-0.986 0.951,-1.963 1.48,-2.938 l -0.417,-0.371 c -1.7,0.868 -3.222,1.257 -4.573,1.15 -1.355,-0.1 -2.645,-0.701 -3.873,-1.795 -1.212,-1.079 -1.922,-2.24 -2.142,-3.482 -0.214,-1.237 0.093,-2.319 0.924,-3.253 1.114,-1.251 3.665,-1.261 7.653,-0.032 0.693,0.218 1.23,0.377 1.61,0.487 3.866,1.121 6.641,1.519 8.33,1.189 1.695,-0.325 3.263,-1.29 4.698,-2.902 2.268,-2.546 3.128,-5.348 2.603,-8.407 C 12.55,10.34 10.675,7.375 7.452,4.503 6.262,3.444 5.033,2.529 3.761,1.765 2.494,1.005 1.236,0.413 0,0" /></g></g></g></g></svg>